<svg width="49" height="48" viewBox="0 0 49 48" fill="none" xmlns="http://www.w3.org/2000/svg">
<path fill-rule="evenodd" clip-rule="evenodd" d="M24.5012 7.5C15.3879 7.5 8 14.8879 8 24.0012C8 33.1146 15.3879 40.5025 24.5012 40.5025C27.5275 40.5025 30.3578 39.6897 32.7924 38.2717C33.7469 37.7158 34.9713 38.039 35.5272 38.9935C36.0831 39.9479 35.76 41.1724 34.8055 41.7283C31.7763 43.4925 28.2537 44.5025 24.5012 44.5025C13.1787 44.5025 4 35.3238 4 24.0012C4 12.6787 13.1787 3.5 24.5012 3.5C35.8238 3.5 45.0025 12.6787 45.0025 24.0012C45.0025 26.742 44.4636 29.3619 43.4841 31.757C43.066 32.7794 41.8982 33.2693 40.8759 32.8512C39.8535 32.4331 39.3636 31.2653 39.7817 30.243C40.5681 28.3201 41.0025 26.2139 41.0025 24.0012C41.0025 14.8879 33.6146 7.5 24.5012 7.5ZM24.5013 26.0012C23.3968 26.0012 22.5013 25.1058 22.5013 24.0012V13.9096C22.5013 12.8051 23.3968 11.9096 24.5013 11.9096C25.6059 11.9096 26.5013 12.8051 26.5013 13.9096V24.0012C26.5013 25.1058 25.6059 26.0012 24.5013 26.0012Z" fill="#F79009"/>
<path d="M22.5027 30.7289C22.5027 29.6251 23.3975 28.7302 24.5014 28.7302C25.6052 28.7302 26.5001 29.6251 26.5001 30.7289C26.5001 31.8328 25.6052 32.7276 24.5014 32.7276C23.3975 32.7276 22.5027 31.8328 22.5027 30.7289Z" fill="#F79009"/>
</svg>
